<?xml version="1.0" standalone="no"?>
<!DOCTYPE svg PUBLIC "-//W3C//DTD SVG 20010904//EN"
 "http://www.w3.org/TR/2001/REC-SVG-20010904/DTD/svg10.dtd">
<svg version="1.0" xmlns="http://www.w3.org/2000/svg"
 width="2084.000000pt" height="2084.000000pt" viewBox="0 0 2084.000000 2084.000000"
 preserveAspectRatio="xMidYMid meet">
<metadata>
Created by potrace 1.14, written by Peter Selinger 2001-2017
</metadata>
<g transform="translate(0.000000,2084.000000) scale(0.100000,-0.100000)"
fill="#000000" stroke="none">
<path d="M3607 15433 c-4 -1992 -2 -1916 -52 -2208 -38 -221 -121 -506 -209
-720 -107 -257 -301 -585 -472 -800 -82 -103 -287 -331 -303 -337 -4 -2 -41
-33 -80 -70 l-72 -67 48 -42 c105 -92 295 -293 391 -412 386 -481 631 -1050
716 -1666 33 -233 36 -489 36 -3023 l0 -2538 6810 0 6810 0 3 2712 c3 2984 -2
2748 62 3063 107 526 338 1025 670 1440 73 92 280 321 294 327 5 2 41 33 80
70 l73 67 -148 143 c-562 546 -886 1188 -1011 2003 -15 99 -17 298 -22 2015
l-6 1905 -6807 3 -6807 2 -4 -1867z m9955 -5003 c873 -2643 1588 -4808 1588
-4812 0 -5 -512 -8 -1138 -8 l-1139 0 -293 953 c-161 523 -306 994 -322 1045
l-29 92 -1814 0 -1813 0 -11 -32 c-64 -203 -186 -600 -356 -1158 -113 -371
-222 -726 -241 -787 l-35 -113 -1141 0 c-908 0 -1139 3 -1135 13 2 6 721 2173
1598 4815 l1593 4802 1550 -2 1550 -3 1588 -4805z"/>
<path d="M10367 13323 c-3 -5 -44 -134 -91 -288 -48 -154 -188 -595 -311 -980
-228 -712 -268 -841 -465 -1485 -62 -200 -156 -503 -211 -672 -54 -169 -99
-312 -99 -317 0 -8 378 -11 1231 -11 981 0 1230 3 1226 13 -19 50 -487 1533
-567 1796 -55 182 -176 575 -269 874 -93 298 -192 619 -221 712 -28 94 -65
214 -81 268 l-30 97 -54 0 c-30 0 -56 -3 -58 -7z"/>
</g>
</svg>
