<svg id="Layer_1" data-name="Layer 1" xmlns="http://www.w3.org/2000/svg" viewBox="0 0 1112.31 492.34"><defs><style>.cls-1{fill:#f68e47;}.cls-2{fill:#721613;}.cls-3{fill:#f0c419;}</style></defs><path class="cls-1" d="M392.93,369.5c0-15.61,20.88-40.82,28.4-40.82,2.82,0,7,3.2,7,5.83,0,5.08-2.82,12.23-5.45,18.81-.94,2.26-1.7,3.77-1.7,5.08,0,3.39,7,7.34,10,7.34,1.51,0,2.45-1.32,3.58-3,4.7-7.71,10.91-19,10.91-24.45,0-9.41-20.13-22.77-28-22.77-15.05,0-46.09,32.36-46.09,52.11,0,24.08,40.26,26,40.26,43.83,0,9-12.79,25-23.7,25-4.52,0-12.23-9.78-12.23-13.92,0-4.89,4.7-12,4.7-14.49,0-1.88-5.64-6.39-7.71-6.39-3.76,0-16.37,13.35-16.37,19,0,10.91,21.07,28.4,36.69,28.4,15.42,0,40.25-25,40.25-41.19,0-19-40.44-19.38-40.44-38.38"/><path class="cls-1" d="M545.48,341.47c0,4.71,5.83,7.9,10.54,7.9,6,0,10-9.4,10-16.55,0-4.7-5.83-7.9-10.54-7.9-6.2,0-10,9.41-10,16.55"/><path class="cls-1" d="M737.92,358.21c-2.64,0-4.89,2.26-6,4.33-6.4,10.54-24.27,41.95-24.27,41.95s-12,3.57-12,12.79a13.28,13.28,0,0,0,1.52,5.45c-7.61,9.85-15.39,14.87-22.21,14.87-8.46,0-19.19-5.46-19.37-17.87,0-1.7,0-3.58.18-5.46a65.57,65.57,0,0,0,16.93,2.63c12.23,0,25.4-25.95,25.4-39.12,0-7.53-12.42-17.12-24.46-17.12-13.67,0-31.12,22.87-36.18,47.78-12.16,18.61-25.18,29.16-34.73,29.16s-15.62-7-15.62-17.12c0-17.31,14.3-49.1,23.89-49.1,1.89,0,3.95,1.51,3.95,3.39,0,4.14-4.89,12-4.89,16,0,3.19,6.21,7.33,10.91,7.33,3.77,0,8.66-15.8,8.66-21.06,0-7-12.23-16.37-23.14-16.37-16.61,0-32.82,24.75-37.56,48.29-8.74,15.66-17.89,28.83-23.2,28.83-2.07,0-4.7-2.82-4.7-6.39,0-7,12.23-49.47,14.48-57.94a17.2,17.2,0,0,0,.76-4.33c0-2.82-10-8.46-12.8-8.46-1.69,0-3.38,1.13-4.13,3.95-1.83,7.07-7.46,27.15-11.61,44.54-3.22,5.75-11,17.35-21.5,17.35a7.45,7.45,0,0,1-2.82-.57c7.33-15.05,10.72-35.17,10.72-46.08,0-9.41-11.85-19.19-20.69-19.19-9,0-20.69,9.41-20.69,9.41s-8.28-9.41-11.48-9.41c-2.63,0-5.45,1.32-6,3.95-11.1,44-29,113.43-29,119.64,0,3.76,9,8.09,12.23,8.09,2.63,0,3.39-1.89,3.95-4.33,1.32-5.83,10.53-47.22,10.53-47.22s10.35,8.28,21.83,8.28c8.27,0,16-6.21,21.82-13.73a82.44,82.44,0,0,0,9.21.94c7.05,0,13-3.32,17.78-7.43a45,45,0,0,0-.66,6.49c0,6.77,14.48,13.73,20.88,13.73,9.86,0,17.42-9.07,24.8-21.26,4.21,11.45,19.7,21.26,30.5,21.26,13.94,0,26.12-8.88,37.38-23.24,3.34,12.32,22.53,23.24,34.86,23.24,12,0,22.51-7.07,31.29-18.11,7.58,9.07,19.89,18.11,29.65,18.11,13.93,0,23.89-14.86,23.89-26.71,0-18.25-9-37.25-9-55.49,0-3.39-6.78-8.66-9.22-8.66M678.1,372.13c1.5,0,4.7,2.64,4.7,4.71,0,8.27-10,29.72-25.58,29.72,1.5-12.42,12.79-34.43,20.88-34.43M486.7,416.38A65.78,65.78,0,0,1,479.35,431c-2,3-5.84,7-9.86,7S459,433.27,459,428.19c0-8.84,6.21-30.1,10.16-40.44,3-8.09,14.49-14.86,19.19-14.86,3,0,6.21,3.19,6.21,7a60.41,60.41,0,0,1-.78,8.59,137.87,137.87,0,0,1-4.79,21.33c-.7,2.24-1.43,4.44-2.24,6.61M725.13,437c-4,0-11.48-8.84-11.48-16.74,0-9,17.68-36.68,17.68-36.68,0,10.16,4.71,23.89,4.71,37.43,0,6.77-4.52,16-10.91,16"/><path class="cls-2" d="M1008.31,283.06c0-10.94-6.92-18.28-17-18.28s-17,7.48-17,18.28,6.92,17.86,17,17.86,17-7.13,17-17.86m-29.16-.28c0-8,5-13.49,12.15-13.49s12.14,5.44,12.14,13.42c0,8.26-4.94,13.77-12.14,13.77s-12.15-5.58-12.15-13.7"/><path class="cls-2" d="M998.78,291l-4.09-6.71c2.61-.49,3.67-2.33,3.67-4.8,0-3.67-2.33-5.08-5.72-5.08h-7.56V291h4.1V284.4h1l4,6.57Zm-7.34-9h-2.26v-4.09H992c1.77,0,2.4.84,2.4,2,0,1.63-1.13,2.05-3,2.05"/><path class="cls-2" d="M146.38,301.62h42.79c4.63-15,8.45-27.79,12-39h67.59l12,39h42.78L264.11,121.76h-58Zm74.4-101.92c4.91-15.81,8.18-25.35,13.35-42.24H236c4.36,14.71,8.45,27,12.54,40.88l9.27,29.16H212.06c3.27-9.82,6-18.81,8.72-27.8"/><path class="cls-2" d="M484.86,168.36c0-33.52-23.44-46.6-58.32-46.6H343.15V301.62h86.11c45.52,0,63.23-19.62,63.23-49.05,0-26.44-14.44-38.7-36-41.7v-1.36c20.44-7.36,28.34-22.08,28.34-41.15m-99.2-14.17h34.07c18.53,0,25.89,9.53,25.89,22.62,0,16.62-12.27,22.89-30.53,22.89H385.66Zm33.79,118H385.66V227h36c13.36,0,28.89,3.54,28.89,22.08,0,16.62-12.26,23.16-31.07,23.16"/><rect class="cls-2" x="519.47" y="121.76" width="42.51" height="179.87"/><path class="cls-2" d="M755.75,211.69c0-64.86-34.34-89.93-82.3-89.93h-74.4V301.62h69.22c62.13,0,87.48-36,87.48-89.93M641.56,263.47V159.91h27c29.43,0,43.33,21,43.33,52.05,0,37.07-19.35,51.51-45.51,51.51Z"/><path class="cls-2" d="M947.06,212c0-68.13-34.34-94.57-85.85-94.57-61.59,0-85.57,37.61-85.57,94.3,0,67.86,34.34,94.29,85.57,94.29,61.6,0,85.85-37.61,85.85-94m-127.81,0c0-43.33,16.89-60.5,42-60.5,30.25,0,41.7,24.26,41.7,60.5,0,43.33-16.62,60.23-41.7,60.23-30.25,0-42-24.26-42-60.23"/><path class="cls-3" d="M77.07,36.84h958.46V153.65A76.37,76.37,0,0,0,1062.46,212a76.33,76.33,0,0,0-26.93,58.36V389.54H765.33c.51,1.88,1,3.78,1.6,5.71,2.85,10,5.79,20.32,5.84,31.13h299.6V320.12h0V270.38c0-11.38,4.61-26,11.91-37.81s17.29-20.73,28-20.73c-21.52,0-40-35.43-40-58.19V81.08h0V0H40.23V36.84L40,75.54v78.11c0,22.76-18.44,58.19-40,58.19,10.76,0,20.75,8.94,28.05,20.73S40,259,40,270.38l.27,114.74v41.26h294.9c0-.48-.06-.95-.06-1.43,0-6.23,4-13.3,11.76-21,6.2-6.13,11.21-9.15,15-10.64a36.21,36.21,0,0,1-3.24-3.77H77.07V315.37l-.29-45A76.33,76.33,0,0,0,49.85,212a76.37,76.37,0,0,0,26.93-58.37V81.08Z"/></svg>