<svg id="Layer_1" data-name="Layer 1" xmlns="http://www.w3.org/2000/svg" viewBox="0 0 177.7 84.11"><defs><style>.cls-1{fill:#fff;}.cls-2{fill:#f78e44;}.cls-3{fill:#721613;}.cls-4{fill:#f0c419;}</style></defs><path class="cls-1" d="M171.64,27.85V17a.86.86,0,0,0,0-.16V4.51A4.53,4.53,0,0,0,167.12,0H10.62A4.53,4.53,0,0,0,6.1,4.52V15.36a4,4,0,0,0,0,.6V27.85C6,31.3,3.25,36.63,0,36.63c1.63,0,3.15,1.35,4.25,3.14a11.85,11.85,0,0,1,1.81,5.68V62.92a4.08,4.08,0,0,0,0,.61v5.64a4.53,4.53,0,0,0,4.52,4.53H55.34l.47,0h0a11.15,11.15,0,0,0,1.34,1.24,11,11,0,0,0,6.54,2.54c.22,0,.44,0,.65,0a6.19,6.19,0,0,0-.08.92c0,3.84,4.11,5.77,6.41,5.77a5.09,5.09,0,0,0,5-4.17v0c.07-.32.3-1.32.55-2.47h0a8.06,8.06,0,0,0,5.12-2l.22,0a9.27,9.27,0,0,0,5.29,2,7.08,7.08,0,0,0,4-1.27,9.25,9.25,0,0,0,4.47,1.27A9.94,9.94,0,0,0,101,75.71a10.8,10.8,0,0,0,5.55,1.74,9.45,9.45,0,0,0,4.89-1.37,8.84,8.84,0,0,0,4.5,1.37,8,8,0,0,0,6.15-3,8.58,8.58,0,0,0,.52-.71h44.54a4.53,4.53,0,0,0,4.53-4.53V55.41a.66.66,0,0,0,0-.14V45.45a11.85,11.85,0,0,1,1.81-5.68c1.11-1.79,2.62-3.14,4.25-3.14-3.25,0-6-5.33-6.06-8.78"/><path class="cls-2" d="M64.5,60.46c0-2.33,3.11-6.09,4.24-6.09.42,0,1,.47,1,.87A9.11,9.11,0,0,1,69,58a2.42,2.42,0,0,0-.25.76c0,.51,1,1.1,1.48,1.1.23,0,.37-.2.54-.45a10.61,10.61,0,0,0,1.63-3.65c0-1.4-3-3.4-4.19-3.4-2.24,0-6.87,4.83-6.87,7.78,0,3.59,6,3.87,6,6.54,0,1.34-1.9,3.73-3.53,3.73-.68,0-1.83-1.46-1.83-2.08s.71-1.79.71-2.16-.85-.95-1.16-.95a5,5,0,0,0-2.44,2.83c0,1.63,3.15,4.24,5.48,4.24s6-3.73,6-6.15c0-2.83-6-2.89-6-5.72"/><path class="cls-2" d="M87.26,56.28c0,.7.87,1.18,1.57,1.18.9,0,1.49-1.41,1.49-2.47,0-.71-.87-1.18-1.57-1.18-.93,0-1.49,1.4-1.49,2.47"/><path class="cls-2" d="M116,58.77a1.15,1.15,0,0,0-.9.65c-.95,1.57-3.62,6.26-3.62,6.26s-1.79.53-1.79,1.91a2,2,0,0,0,.22.81c-1.13,1.47-2.29,2.22-3.31,2.22A2.76,2.76,0,0,1,103.68,68a7.59,7.59,0,0,1,0-.81,9.79,9.79,0,0,0,2.52.39c1.83,0,3.79-3.87,3.79-5.84,0-1.12-1.85-2.55-3.65-2.55-2,0-4.64,3.41-5.4,7.13-1.81,2.77-3.75,4.35-5.18,4.35a2.31,2.31,0,0,1-2.33-2.56c0-2.58,2.13-7.32,3.57-7.32a.58.58,0,0,1,.59.5c0,.62-.73,1.8-.73,2.39s.92,1.09,1.62,1.09,1.29-2.35,1.29-3.14c0-1-1.82-2.44-3.45-2.44-2.48,0-4.89,3.69-5.6,7.2-1.31,2.34-2.67,4.31-3.46,4.31-.31,0-.7-.43-.7-1,0-1,1.82-7.38,2.16-8.64a3,3,0,0,0,.11-.65c0-.42-1.49-1.26-1.91-1.26-.25,0-.5.17-.62.59-.27,1.05-1.11,4.05-1.73,6.64C84.12,67.23,83,69,81.39,69a1.21,1.21,0,0,1-.42-.08A17.9,17.9,0,0,0,82.57,62c0-1.4-1.77-2.86-3.09-2.86a6.5,6.5,0,0,0-3.08,1.4s-1.24-1.4-1.71-1.4a.86.86,0,0,0-.9.59c-1.66,6.57-4.32,16.92-4.32,17.85,0,.56,1.34,1.2,1.82,1.2s.5-.28.59-.64c.2-.87,1.57-7,1.57-7a6,6,0,0,0,3.26,1.24,4.52,4.52,0,0,0,3.25-2,12.37,12.37,0,0,0,1.38.14A4,4,0,0,0,84,69.31a7.21,7.21,0,0,0-.1,1c0,1,2.16,2,3.12,2,1.47,0,2.6-1.35,3.7-3.17a5.59,5.59,0,0,0,4.55,3.17c2.08,0,3.9-1.33,5.57-3.47.5,1.84,3.37,3.47,5.21,3.47a6.09,6.09,0,0,0,4.66-2.7c1.14,1.35,3,2.7,4.43,2.7,2.08,0,3.56-2.22,3.56-4,0-2.72-1.34-5.55-1.34-8.28,0-.5-1-1.29-1.38-1.29m-8.92,2.08c.22,0,.7.39.7.7,0,1.24-1.49,4.44-3.82,4.44.23-1.86,1.91-5.14,3.12-5.14m-28.56,6.6a9.92,9.92,0,0,1-1.1,2.18,2.13,2.13,0,0,1-1.47,1,1.75,1.75,0,0,1-1.57-1.46,25,25,0,0,1,1.51-6A4.12,4.12,0,0,1,78.73,61a1,1,0,0,1,.92,1,9.08,9.08,0,0,1-.11,1.28,20.45,20.45,0,0,1-.72,3.19c-.1.33-.21.66-.33,1m35.57,3.08c-.59,0-1.71-1.32-1.71-2.49,0-1.35,2.64-5.48,2.64-5.48,0,1.52.7,3.57.7,5.59,0,1-.67,2.38-1.63,2.38"/><path class="cls-3" d="M156.31,47.56a2.54,2.54,0,1,0-5.07,0,2.54,2.54,0,1,0,5.07,0m-4.35,0a1.83,1.83,0,1,1,1.82,2,1.85,1.85,0,0,1-1.82-2"/><path class="cls-3" d="M154.89,48.74l-.61-1a.65.65,0,0,0,.55-.72c0-.54-.35-.75-.85-.75h-1.13v2.47h.61v-1h.15l.6,1Zm-1.09-1.35h-.34v-.61h.42c.26,0,.36.13.36.31s-.17.3-.44.3"/><path class="cls-3" d="M27.71,50.33H34.1c.69-2.24,1.26-4.15,1.78-5.81H46l1.79,5.81h6.38L45.28,23.49H36.62Zm11.1-15.21c.73-2.36,1.22-3.78,2-6.3h.29c.65,2.2,1.26,4,1.87,6.1l1.38,4.35H37.51c.49-1.46.9-2.81,1.3-4.15"/><path class="cls-3" d="M78.21,30.45c0-5-3.49-7-8.7-7H57.07V50.33H69.92c6.79,0,9.43-2.93,9.43-7.32,0-3.94-2.15-5.77-5.36-6.22v-.2a5.94,5.94,0,0,0,4.22-6.14m-14.8-2.12H68.5c2.76,0,3.86,1.43,3.86,3.38,0,2.48-1.83,3.41-4.56,3.41H63.41Zm5,17.61h-5V39.19h5.37c2,0,4.31.53,4.31,3.29,0,2.48-1.83,3.46-4.63,3.46"/><rect class="cls-3" x="83.38" y="23.49" width="6.34" height="26.84"/><path class="cls-3" d="M118.63,36.91c0-9.68-5.12-13.42-12.28-13.42H95.25V50.33h10.33c9.27,0,13-5.37,13-13.42m-17,7.73V29.19h4c4.39,0,6.46,3.13,6.46,7.76,0,5.53-2.88,7.69-6.79,7.69Z"/><path class="cls-3" d="M147.18,37c0-10.16-5.13-14.11-12.81-14.11-9.19,0-12.77,5.61-12.77,14.07C121.6,47,126.72,51,134.37,51c9.19,0,12.81-5.61,12.81-14m-19.07,0c0-6.46,2.52-9,6.26-9,4.51,0,6.22,3.61,6.22,9,0,6.47-2.48,9-6.22,9-4.52,0-6.26-3.62-6.26-9"/><path class="cls-4" d="M17.37,10.82h143V28.25a11.38,11.38,0,0,0,4,8.71,11.38,11.38,0,0,0-4,8.71V63.45H120.06l.24.85a17.16,17.16,0,0,1,.87,4.64h44.7V53.09h0V45.67A11.58,11.58,0,0,1,167.65,40c1.09-1.76,2.58-3.1,4.18-3.1-3.21,0-6-5.28-6-8.68V17.42h0V5.33h-154v5.49l0,5.78V28.25c0,3.4-2.75,8.68-6,8.68,1.61,0,3.1,1.34,4.19,3.1a11.56,11.56,0,0,1,1.77,5.64l0,17.12v6.15h44v-.21a4.79,4.79,0,0,1,1.75-3.13A6.76,6.76,0,0,1,59.86,64a5.17,5.17,0,0,1-.49-.56h-42V52.38l0-6.71a11.38,11.38,0,0,0-4-8.71,11.38,11.38,0,0,0,4-8.71V17.42"/></svg>